<svg id="Layer_1" height="512" viewBox="0 0 128 128" width="512" xmlns="http://www.w3.org/2000/svg" data-name="Layer 1"><path d="m121.5 4.75h-79.62a1.75 1.75 0 0 0 -1.75 1.75v38.058h-33.63a1.75 1.75 0 0 0 -1.75 1.75v57.5a1.75 1.75 0 0 0 1.75 1.75h8.125v15.942a1.75 1.75 0 0 0 2.987 1.237l17.18-17.18h51.323a1.75 1.75 0 0 0 1.75-1.75v-38.057h5.34l17.178 17.177a1.75 1.75 0 0 0 2.987-1.237v-15.94h8.13a1.75 1.75 0 0 0 1.75-1.75v-57.5a1.75 1.75 0 0 0 -1.75-1.75zm-37.135 97.308h-50.3a1.75 1.75 0 0 0 -1.237.513l-14.705 14.7v-13.463a1.75 1.75 0 0 0 -1.75-1.75h-8.123v-54h33.606.024.024 42.461zm35.385-39.808h-8.13a1.75 1.75 0 0 0 -1.75 1.75v13.465l-14.7-14.7a1.75 1.75 0 0 0 -1.237-.513h-6.068v-15.944a1.75 1.75 0 0 0 -1.75-1.75h-42.485v-36.308h76.12z"/><circle cx="20.808" cy="75.058" r="4"/><circle cx="37.808" cy="75.058" r="4"/><circle cx="54.808" cy="75.058" r="4"/><circle cx="71.808" cy="75.058" r="4"/><circle cx="56.192" cy="35.25" r="4"/><circle cx="73.192" cy="35.25" r="4"/><circle cx="90.192" cy="35.25" r="4"/><circle cx="107.192" cy="35.25" r="4"/></svg>